<svg width="495" height="482" viewBox="0 0 495 482" fill="none" xmlns="http://www.w3.org/2000/svg">
<rect x="43.3672" y="38.311" width="424.18" height="425.409" rx="212.09" fill="#EFF2FF"/>
<rect x="13.332" y="293.38" width="144.237" height="144.903" rx="72.1184" fill="#EFF2FF"/>
<path d="M207.311 223.572L218.551 228.799C219.409 226.4 220.267 224.086 220.954 221.943C221.297 221.001 222.327 217.144 222.67 216.287C219.581 215.859 214.261 213.888 210.314 212.859C210.142 213.716 208.855 218.43 208.684 219.287C208.684 219.372 208.684 219.458 208.598 219.544C208.255 220.915 207.74 222.286 207.311 223.572Z" fill="white"/>
<path d="M212.545 208.231L211.687 211.317L215.291 216.116C215.291 216.116 220.353 218.43 226.188 215.173C228.676 213.802 230.392 210.631 231.593 207.289C231.765 206.775 231.937 206.26 232.108 205.832C232.966 203.175 233.481 200.604 233.653 199.233C233.739 198.548 233.567 197.862 233.052 197.433L231.079 195.548L230.049 194.605L229.877 194.434L226.188 192.034L225.416 191.52C225.33 191.435 225.244 191.435 225.158 191.349C223.785 190.406 221.898 189.721 220.439 189.292C220.181 189.206 219.924 189.121 219.667 189.035C219.752 188.692 219.838 188.349 219.924 188.007C220.696 184.922 221.383 182.436 221.554 181.751C224.214 170.696 221.554 168.553 220.096 168.382C218.809 168.21 217.607 169.067 217.264 170.267L211.687 191.777L209.971 198.033L208.426 204.889L208.34 205.146L212.545 208.231Z" fill="white"/>
<path d="M231.595 207.289C231.337 207.374 231.166 207.374 230.908 207.374H230.822C229.621 207.374 228.506 206.517 227.562 205.061C227.304 205.146 227.133 205.146 226.875 205.146C224.902 205.146 222.499 203.175 221.813 202.49C221.641 202.49 221.555 202.575 221.384 202.575C219.067 202.575 216.665 200.261 216.579 200.09C216.321 199.833 216.407 199.49 216.579 199.319C216.836 199.147 217.179 199.147 217.351 199.319C218.037 200.004 220.183 201.804 221.813 201.376C222.842 201.118 224.215 196.405 225.159 191.435C225.245 191.52 225.331 191.52 225.417 191.606L226.189 192.12C225.502 195.634 224.387 200.433 222.842 201.975C224.13 203.09 226.618 204.804 227.733 203.689C228.935 202.49 229.707 197.691 230.05 194.52L231.08 195.462C230.736 198.462 229.964 203.004 228.506 204.461C229.278 205.575 230.05 206.26 230.822 206.26C231.337 206.26 231.766 206.089 232.109 205.832L231.595 207.289Z" fill="#3957F1"/>
<path d="M219.925 188.093L219.324 189.121L217.436 195.806C217.35 196.063 217.522 196.406 217.78 196.491C217.865 196.491 217.865 196.491 217.951 196.491C218.209 196.491 218.38 196.32 218.466 196.063L220.354 189.464L220.439 189.378L219.925 188.093Z" fill="#3957F1"/>
<path d="M208.426 204.889C208.512 204.975 208.598 204.975 208.684 205.061C209.456 205.661 210.4 206.089 211.172 206.775C212.631 208.232 214.089 209.688 215.291 211.317C215.548 211.66 215.977 212.431 216.492 212.259C216.835 212.088 217.007 211.402 217.093 211.06C217.522 209.346 216.921 207.203 216.32 205.575C216.063 204.889 215.548 204.204 215.119 203.604C214.862 203.261 214.69 202.918 214.347 202.576C213.918 202.061 214.004 202.147 214.347 201.633C214.518 201.376 214.604 200.69 214.776 200.433C215.033 200.262 215.634 200.176 215.891 200.09C216.749 199.833 217.522 199.662 218.38 199.148C220.182 198.034 221.383 196.834 220.954 194.606C220.525 192.463 217.865 192.463 216.149 192.12C215.205 191.949 214.347 191.606 213.403 191.52C212.802 191.435 212.288 191.692 211.773 191.863L210.057 198.119L208.426 204.889Z" fill="#3957F1"/>
<path d="M203.708 202.062C203.965 197.262 212.546 192.292 212.546 192.292C212.546 192.292 217.265 193.577 219.153 193.663C220.955 193.663 218.981 200.005 213.318 199.319C212.631 200.433 211.43 201.547 209.371 202.49C209.371 202.49 217.008 204.461 218.295 214.059L210.486 215.688C210.486 215.773 203.45 206.861 203.708 202.062Z" fill="white"/>
<path d="M201.734 284.932C200.962 285.017 152.74 238.14 144.76 233.77C133.348 227.514 104.174 240.968 110.781 247.653C136.523 273.277 194.527 307.385 194.527 307.385L201.734 284.932Z" fill="#3957F1"/>
<path d="M197.616 308.327C210.658 304.642 221.812 225.628 221.812 225.628L206.196 221.943C206.196 221.943 193.154 268.735 187.062 283.218C177.623 298.472 196.672 309.356 197.616 308.327Z" fill="#3957F1"/>
<path d="M115.671 226.057C115.671 234.027 128.97 237.112 135.577 237.883C143.214 250.823 151.194 277.304 121.763 279.19C92.3318 281.075 81.3488 261.279 72.1677 246.71C85.21 247.481 96.6221 239.34 98.853 210.631C101.17 181.065 98.6814 184.493 94.0479 175.495C87.2694 162.211 94.477 159.04 97.2227 161.097C100.14 163.411 101.77 164.782 102.457 175.495L111.895 180.808C113.182 177.723 110.093 156.898 115.757 156.384C126.482 155.355 154.712 142.586 154.712 142.586C176.163 170.781 162.005 218.087 115.757 210.631V226.057H115.671Z" fill="#161485"/>
<path d="M114.556 225.457C114.556 233.427 128.113 236.598 134.892 237.369C142.7 250.395 150.851 276.962 120.82 278.847C90.7023 280.732 73.8846 249.967 64.446 235.312C69.2511 228.371 94.4777 236.169 96.108 212.602C98.4247 182.865 97.1376 183.808 92.4184 174.809C85.4682 161.44 92.8474 158.269 95.5932 160.412C98.5105 162.726 96.537 135.731 97.3092 146.443L112.754 149.614C126.998 138.387 154.455 141.73 154.455 141.73C176.335 170.01 161.92 217.573 114.556 210.117V225.457Z" fill="white"/>
<path d="M79.5492 158.783C81.0937 166.496 83.1531 174.638 90.1032 183.122L95.1657 192.206L96.1953 185.35C96.8818 182.522 97.3108 179.608 97.4824 176.694C97.4824 174.038 98.1689 171.381 102.116 167.439C106.149 163.411 102.116 150.813 102.116 150.813C107.178 150.471 112.327 150.471 117.475 150.813C122.795 151.499 141.414 155.441 154.714 152.784C168.014 150.128 188.006 132.131 182.686 121.505C177.367 110.878 171.36 118.848 162.694 118.162C154.028 117.477 142.701 109.507 128.715 109.507C114.729 109.507 105.977 111.992 94.9941 121.505C84.2685 131.017 77.5757 146.786 79.5492 158.783Z" fill="#3957F1"/>
<path d="M95.8509 185.35C96.5373 182.522 96.9664 179.608 97.138 176.694C97.138 174.038 97.8244 171.381 101.771 167.439C105.804 163.411 101.771 150.813 101.771 150.813C106.834 150.471 111.982 150.471 117.13 150.813C117.989 150.899 119.276 151.156 120.82 151.413C128.542 152.699 143.301 155.098 154.455 152.87C163.036 151.156 174.448 143.101 179.939 134.702C178.481 134.959 177.022 135.131 175.392 135.045C171.874 134.788 167.841 133.245 163.379 131.531C157.03 129.132 149.65 126.304 141.413 126.304C127.427 126.304 112.754 138.987 112.754 138.987L100.055 151.756C100.055 151.756 90.102 163.668 92.0755 175.666C92.7619 179.094 93.8774 182.522 95.4219 185.607L95.8509 185.35Z" fill="#04146C"/>
<path d="M68.8225 372.687H150.938C150.938 372.687 152.739 371.83 152.654 370.801C151.281 355.633 142.443 254.851 156 252.537C154.456 244.91 152.825 231.199 123.909 227.428C121.335 227.085 117.131 226.828 114.9 226.571C103.831 234.455 93.7058 234.284 90.2736 232.141C86.8414 229.999 91.0459 225.028 91.0459 225.028C79.8913 231.541 61.4433 215.602 53.8067 238.14C48.5726 253.652 64.7897 357.689 66.9348 371.23C67.278 372.087 67.9644 372.687 68.8225 372.687Z" fill="#3957F1"/>
<path d="M151.024 372.687C151.024 372.687 147.506 308.499 148.193 266.935C150.423 312.784 155.229 372.687 155.229 372.687H151.024Z" fill="#04146C"/>
<path d="M90.4457 227.942L104.775 224.771L115.072 226.571C115.586 233.17 117.131 240.283 115.844 245.682C113.27 256.48 106.148 261.879 98.9403 257.765C88.1289 251.509 91.2179 238.14 90.4457 227.942Z" fill="white"/>
<path d="M75.4288 128.789C78.5178 122.79 87.5273 121.248 87.5273 121.248C87.5273 121.248 96.4509 104.879 113.183 105.222C129.829 105.565 147.848 112.506 147.848 112.506C147.848 112.506 150.765 107.107 153.168 108.136C155.57 109.164 155.999 118.334 155.999 118.334C155.999 118.334 164.151 112.335 165.609 115.849C167.068 119.362 169.213 135.559 154.798 140.101C140.383 144.558 122.879 132.217 122.879 132.217C119.447 146.443 100.312 148.671 100.312 148.671C100.312 148.671 97.2232 168.725 86.1544 168.296C78.9468 167.953 72.3398 134.788 75.4288 128.789Z" fill="#3957F1"/>
<path d="M103.316 125.533C106.061 122.705 109.665 120.905 113.526 120.305C117.388 119.877 121.249 120.134 125.024 121.248C126.826 121.848 128.714 122.276 130.43 123.133C132.146 123.99 133.862 124.762 135.578 125.619C133.776 125.019 131.974 124.247 130.258 123.648C128.456 123.048 126.654 122.619 124.853 122.105C123.051 121.762 121.163 121.419 119.275 121.248L116.444 121.162C115.5 121.162 114.556 121.248 113.698 121.419C110.008 121.848 106.576 123.562 103.916 126.133C101.256 128.789 99.2827 132.046 98.3389 135.731C98.9395 131.875 100.656 128.361 103.316 125.533Z" fill="#BDBBBB"/>
<path d="M115.93 246.282C139.698 261.022 127.257 238.14 114.558 225.371L115.93 246.282Z" fill="#04146C"/>
<path d="M90.7037 245.424C64.9623 256.394 79.4633 237.797 91.0469 225.457L90.7037 245.424Z" fill="#04146C"/>
<path d="M85.7247 346.978L98.2521 352.12C98.2521 352.12 114.469 355.034 118.502 356.062C122.449 357.09 146.903 352.463 146.903 352.463C147.761 349.377 140.811 349.806 140.811 349.806L155.141 346.121C154.454 343.207 149.22 344.578 149.22 344.578L154.197 342.007C152.566 335.666 140.725 344.493 140.725 344.493L147.161 339.094C146.217 332.495 124.508 347.835 124.508 347.835L108.978 342.265C108.978 342.265 123.135 334.552 115.842 327.524C115.842 327.524 108.291 337.637 100.912 342.864C99.3676 343.379 90.1865 339.094 90.1865 339.094L85.7247 346.978Z" fill="white"/>
<path d="M55.8651 318.526L34.9288 334.894L95.5069 354.776L98.6816 340.293L55.8651 318.526Z" fill="#3957F1"/>
<path d="M55.8656 318.525C55.694 317.668 57.9249 311.327 61.1855 293.673C63.6738 280.39 67.1918 267.963 66.9344 258.365C66.8486 255.109 64.2744 221.258 56.7236 232.227C43.7671 258.022 27.4643 328.038 27.4643 329.666C27.4643 335.579 80.0625 348.863 80.0625 348.863L54.6643 323.839L55.8656 318.525Z" fill="#3957F1"/>
<path d="M98.6836 340.292L54.151 319.639L69.4242 263.078L69.5958 272.676L56.6393 318.953L98.6836 340.292Z" fill="#04146C"/>
<path d="M63.0724 344.149L95.5065 354.776L95.9355 355.633L63.1582 345.178L63.0724 344.149Z" fill="#04146C"/>
<path d="M256.114 380.273H46.9492C46.9492 376.09 50.3406 372.698 54.524 372.698H98.9669L118.987 264.33C119.317 262.54 120.878 261.241 122.699 261.241H275.398C277.762 261.241 279.544 263.387 279.109 265.71L257.969 378.733C257.802 379.626 257.023 380.273 256.114 380.273Z" fill="#04146C"/>
<path d="M196.457 329.893H180.285C179.807 329.893 179.412 329.496 179.412 329.015L183.145 313.625C183.145 313.144 183.54 312.747 184.018 312.747H200.19C200.668 312.747 201.063 313.144 201.063 313.625L197.33 329.015C197.309 329.496 196.935 329.893 196.457 329.893ZM183.94 325.125C183.94 325.774 184.356 326.213 185.021 326.213C185.686 326.213 186.102 325.774 186.102 325.125L188.342 317.451C188.342 316.803 187.926 316.364 187.261 316.364C186.596 316.364 186.18 316.803 186.18 317.451L183.94 325.125ZM190.384 325.125C190.384 325.774 190.8 326.213 191.465 326.213C192.13 326.213 192.546 325.774 192.546 325.125L194.785 318.371H196.823C197.446 318.371 197.945 318.058 197.945 317.472C197.945 316.887 197.446 316.573 196.823 316.573H190.607C189.984 316.573 189.485 316.887 189.485 317.472C189.485 318.058 189.984 318.371 190.607 318.371H192.644L190.405 325.125H190.384Z" fill="white"/>
<rect x="280.984" y="18.0112" width="90.9844" height="91.7896" rx="45.4922" fill="#EFF2FF"/>
<path d="M404.777 113.62C393.071 112.072 376.531 114.453 376.125 126.809C375.719 139.164 381.736 161.415 375.14 171.209C368.544 181.003 368.05 206.067 383.262 219.511C398.474 232.954 372.193 241.477 384.877 267.61C397.561 293.743 440.35 287.027 456.021 262.111C471.692 237.195 451.608 162.992 435.964 137.878C420.32 112.765 404.777 113.62 404.777 113.62Z" fill="#04146C"/>
<path d="M368.202 137.724C358.466 133.757 343.637 132.05 340.384 142.503C337.13 152.956 337.093 173.305 329.101 180.173C321.11 187.04 314.794 208.319 324.76 223.231C334.725 238.142 310.049 239.476 314.852 264.645C319.655 289.815 358.149 293.754 377.523 276.033C396.897 258.312 397.005 190.445 389.409 165.476C381.812 140.507 368.202 137.724 368.202 137.724Z" fill="#04146C"/>
<path d="M423.118 171.734C425.588 169.892 429.115 169.075 431.69 170.702C433.607 171.906 434.709 174.279 434.696 176.587C434.746 178.899 433.863 181.219 432.569 183.131C428.816 188.808 422.196 191.495 415.92 193.625L416.991 178.682C418.938 176.232 420.648 173.576 423.118 171.734Z" fill="white"/>
<path d="M428.392 230.975C420.614 220.248 422.232 181.01 422.232 181.01L397.227 182.483L397.076 227.326C397.068 239.389 381.302 226.907 376.69 229.971C369.675 234.561 369.515 258.934 400.271 260.111C431.028 261.288 450.224 237.527 450.224 237.527C450.224 237.527 436.169 241.701 428.392 230.975Z" fill="white"/>
<path d="M348.142 158.984C349.242 168.61 348.918 178.408 350.662 188.008C351.811 194.62 354.467 200.745 358.279 205.783C366.316 216.46 379.332 222.235 394.102 217.911C407.11 214.06 417.297 202.535 420.392 189.308C421.263 185.445 421.75 181.56 421.917 177.656C422.142 171.701 421.726 165.709 420.983 159.826C420.206 153.428 420.506 146.195 416.777 140.841C416.363 140.239 415.881 139.697 415.4 139.156C415.159 138.885 414.854 138.61 414.549 138.335C412.047 136.134 409.05 134.673 406.054 133.213C393.374 127.202 373.838 119.822 360.434 127.115C357.316 128.791 354.597 131.325 352.273 134.781C347.554 141.817 347.212 150.844 348.142 158.984Z" fill="white"/>
<path d="M340.577 175.026C340.532 183.365 347.061 190.232 355.317 190.72C355.637 190.739 355.893 190.754 356.213 190.773C364.883 190.772 371.91 183.809 371.909 175.146C371.929 173.736 371.748 172.442 371.376 171.137L377.908 170.368C378.117 174.423 379.821 178.181 382.67 181.044C385.519 183.908 389.335 185.609 393.367 185.848C393.687 185.867 394.007 185.886 394.327 185.904C398.758 185.91 402.839 184.226 405.98 181.075C409.117 177.988 410.839 173.855 410.844 169.428C410.85 165.001 409.165 160.923 406.011 157.785C402.922 154.651 398.785 152.93 394.354 152.925C389.923 152.919 385.842 154.603 382.701 157.754C379.767 160.66 378.061 164.538 377.882 168.634L370.831 169.5C368.544 163.654 362.884 159.47 356.269 159.463C352.094 159.473 348.145 161.1 345.147 164.003C342.213 166.91 340.567 170.855 340.577 175.026ZM394.38 154.659C394.636 154.674 394.956 154.693 395.212 154.708C398.86 154.924 402.176 156.403 404.783 158.996C407.572 161.791 409.088 165.474 409.109 169.454C409.134 173.369 407.567 177.062 404.768 179.849C401.97 182.635 398.284 184.149 394.301 184.17C390.386 184.131 386.686 182.629 383.898 179.834C381.109 177.038 379.593 173.355 379.572 169.375C379.605 161.228 386.226 154.626 394.38 154.659ZM346.359 165.23C349.018 162.628 352.508 161.166 356.231 161.194C356.487 161.209 356.743 161.224 357.063 161.243C364.359 161.674 370.225 167.796 370.174 175.172C370.167 182.872 363.889 189.11 356.183 189.103C348.477 189.096 342.234 182.824 342.241 175.125C342.272 171.341 343.764 167.836 346.359 165.23Z" fill="#3FFFF3"/>
<path d="M424.027 170.613C410.38 173.633 400.255 138.261 398.79 134.035C399.571 136.744 403.724 151.087 402.715 151.951C401.488 152.233 400.223 152.319 398.969 152.205C398.516 150.473 397.928 148.778 397.212 147.137C396.91 146.365 397.435 148.951 397.754 152.234C397.05 152.234 396.306 152.188 395.501 152.201C394.661 148.476 393.335 144.877 391.555 141.499C390.883 140.222 392.165 146.45 392.182 152.162C383.777 152.077 371.727 152.234 361.018 154.636C358.159 155.263 355.717 155.924 353.569 156.602C352.459 152.332 351.764 147.667 351.705 148.725C351.516 151.521 351.609 154.329 351.983 157.107C350.828 157.49 349.756 157.845 348.804 158.203C346.955 152.252 347.327 141.897 346.733 143.622C345.064 148.894 344.401 154.435 344.779 159.955C340.888 161.81 339.992 162.901 339.573 161.869C338.88 160.009 336.866 142.547 346.753 126.787C357.503 109.665 385.004 98.9164 406.372 115.444C406.372 115.444 421.779 120.657 427.457 134.003C433.136 147.348 437.673 167.594 424.027 170.613Z" fill="#04146C"/>
<path fill-rule="evenodd" clip-rule="evenodd" d="M417.681 164.983C416.802 184.98 414.475 226.047 412.203 230.337L416.232 229.923C417.498 218.749 419.31 200.323 420.081 185.742C420.121 206.78 419.907 232.519 418.878 235.848L421.523 235.576C422.21 216.314 423.13 175.976 421.313 168.719C420.296 164.655 419.904 164.223 419.812 165.168C419.775 165.028 419.736 164.897 419.695 164.776C417.348 157.806 417.375 162.01 417.681 164.983Z" fill="#04146C"/>
<path d="M429.432 231.273C420.127 249.022 387.461 247.521 381.215 228.526C364.29 219.44 357.429 230.794 356.293 235.33L364.29 278.028L372.205 282.845L367.777 305.902L370.684 324.485L373.59 356.424L375.885 359.505C378.441 358.654 390.192 357.464 423.584 359.505C453.909 361.359 447.054 357.921 482.258 346.532C479.134 315.63 476.946 259.858 468.768 243.528C460.59 227.198 437.951 226.737 429.432 231.273Z" fill="#8A9AF1"/>
<path d="M381.845 358.47H364.809C372.305 358.47 371.907 335.79 370.772 324.45C361.912 308.8 367.776 290.223 373.008 283.255C366.676 300.095 369.92 317.646 381.845 329.553V358.47Z" fill="#0A2FF1"/>
<path d="M457.596 273.973L462.278 333.858L428.025 358.256H420.73L457.596 330.957L452.267 283.362L457.596 273.973Z" fill="#0A2FF1"/>
<path d="M370.233 281.248L325.275 360.529L373.201 283.609L370.233 281.248Z" fill="#2C50FA" stroke="#2C50FA" stroke-width="0.756199"/>
<path d="M371.406 393.389L276.084 382.153L359.122 360.879L445.632 363.889L371.406 393.389Z" fill="white"/>
<path d="M371.17 392.063C371.17 392.063 371.631 391.852 372.519 391.492L376.456 389.882L391.451 383.894L445.317 362.355L445.388 362.811L358.877 359.845L358.952 359.847L351.566 361.764L275.862 381.066L275.879 380.58L344.824 388.801L364.299 391.176L369.448 391.812L370.772 391.996L371.224 392.065L370.781 392.05L369.455 391.92L364.315 391.35L344.814 389.103L275.862 381.077L274.515 380.924L275.824 380.589L351.477 361.178L358.864 359.261L358.939 359.263L445.448 362.316L446.583 362.354L445.488 362.761L391.487 384.122L376.462 390.034L372.506 391.567L371.17 392.063Z" fill="#04146C"/>
<path d="M371.519 389.906L276.198 378.671L359.235 357.396L445.746 360.406L371.519 389.906Z" fill="white"/>
<path d="M371.283 388.581C371.283 388.581 371.745 388.369 372.633 388.009L376.569 386.4L391.564 380.412L445.43 358.873L445.502 359.329L358.99 356.362L359.065 356.365L351.679 358.282L275.976 377.583L275.992 377.097L344.937 385.318L364.413 387.694L369.561 388.329L370.885 388.514L371.337 388.583L370.894 388.568L369.568 388.437L364.428 387.867L344.927 385.621L275.975 377.594L274.628 377.441L275.937 377.107L351.591 357.695L358.977 355.778L359.052 355.781L445.562 358.834L446.696 358.871L445.601 359.278L391.6 380.64L376.575 386.551L372.619 388.085L371.283 388.581Z" fill="#04146C"/>
<path d="M362.689 227.713C362.689 227.713 357.932 228.663 350.637 241.337C338.752 261.987 306.204 331.175 306.204 331.175C306.204 331.175 288.6 341.025 285.329 351.188C282.058 361.35 285.376 370.358 293.011 370.358C300.646 370.358 320.335 365.141 320.335 365.141L327.087 356.421L374.75 273.964L362.689 227.713Z" fill="#8A9AF1"/>
<path d="M313.137 346.742C314.502 346.981 315.892 346.62 317.273 346.559C318.653 346.498 320.231 346.844 320.944 348.038C321.184 348.504 321.31 349.022 321.31 349.547C321.31 350.072 321.184 350.59 320.944 351.056C320.456 351.985 319.821 352.828 319.063 353.551" fill="#F9F9F9"/>
<path d="M329.492 363.883L298.506 325.516C298.272 325.216 297.838 325.162 297.538 325.397L295.082 327.312C294.782 327.546 294.729 327.979 294.963 328.279L325.143 366.899L331.61 370.233L329.492 363.883Z" fill="#15163D"/>
<path d="M330.492 366.849C329.128 366.849 328.408 367.985 328.219 368.553L331.629 370.256L330.492 366.849Z" fill="#838181"/>
<path d="M375.731 367.62C375.298 368.57 373.723 368.782 372.807 368.819C371.412 368.866 370.13 368.239 368.889 367.678C368.018 367.28 367.172 366.83 366.312 366.406C365.451 365.982 364.6 365.498 363.664 365.289C362.554 365.039 360.598 364.92 360.211 366.334C359.793 367.861 361.888 369.144 362.879 369.879C363.87 370.614 365.222 371.421 365.704 372.588C366.285 374.008 364.364 374.455 363.347 374.51C360.455 374.664 357.616 373.715 354.963 372.681C351.152 371.2 347.36 369.574 343.372 368.616C340.036 367.812 334.845 367.013 332.91 370.724C332.872 370.797 332.991 370.933 333.043 370.849C335.133 367.423 339.914 368.131 343.215 368.927C347.246 369.899 351.062 371.554 354.922 373.047C357.5 374.043 360.205 374.911 363.001 374.862C364.277 374.838 366.852 374.298 366.056 372.449C365.643 371.488 364.661 370.776 363.859 370.161C362.871 369.403 361.752 368.709 360.973 367.713C360.476 367.08 360.319 366.16 361.167 365.721C361.891 365.344 362.891 365.471 363.649 365.657C364.812 365.948 365.913 366.615 366.977 367.15C367.959 367.643 368.948 368.119 369.962 368.541C371.142 369.028 372.322 369.295 373.598 369.083C374.435 368.944 375.687 368.639 376.03 367.748C376.1 367.571 375.801 367.457 375.74 367.626L375.731 367.62Z" fill="#263238"/>
<path d="M308.984 342.024C308.984 342.024 305.865 339.292 303.525 339.609C301.186 339.926 293.38 348.607 293.065 353.747C292.751 358.887 290.726 361.943 294.317 364.056C297.909 366.169 303.525 369.52 307.267 368.393C307.267 368.393 313.878 369.174 314.622 367.355C314.622 367.355 320.417 369.262 320.846 365.183C320.846 365.183 325.003 364.505 324.752 361.891C324.502 359.277 308.984 342.024 308.984 342.024Z" fill="#F9F9F9"/>
<rect x="210.1" y="70.3154" width="101.153" height="87.0114" fill="#3FFFF3"/>
<rect x="208.74" y="72.6757" width="98.026" height="80.3108" fill="white"/>
<path d="M212.826 82.1567H305.526" stroke="#15163D" stroke-width="0.687839"/>
<path d="M212.826 93.1626H305.526" stroke="#15163D" stroke-width="0.687839"/>
<path d="M305.734 104.241H212.827" stroke="#0A2FF1" stroke-width="1.10687"/>
<path d="M287.211 104.241H305.734V109.239C305.734 109.889 305.207 110.415 304.558 110.415H288.387C287.737 110.415 287.211 109.889 287.211 109.239V104.241Z" fill="#0A2FF1"/>
<path d="M212.826 121.495H272.13" stroke="#15163D" stroke-width="0.687839"/>
<path d="M302.682 132.5H212.826" stroke="#0A2FF1" stroke-width="1.10687"/>
<path d="M212.826 143.506H269.45" stroke="#15163D" stroke-width="0.687839"/>
<rect x="208.74" y="72.6757" width="98.026" height="80.3108" stroke="#0A2FF1" stroke-width="1.23811"/>
<path fill-rule="evenodd" clip-rule="evenodd" d="M231.022 63.7236H208.121V68.4277H208.121L208.121 72.5439L307.385 72.5439V68.4277L235.37 68.4277L233.696 65.3203C233.166 64.3368 232.139 63.7236 231.022 63.7236Z" fill="#0A2FF1"/>
</svg>
